<svg width="17" height="16" viewBox="0 0 17 16" fill="none" xmlns="http://www.w3.org/2000/svg">
<path fill-rule="evenodd" clip-rule="evenodd" d="M11.0668 5.33333L10.8038 5.99715L9.63979 8.9355L9.06871 10.377L7.63338 14H9.40756L10.1351 12.0326H13.7217L14.462 14H16.3L12.8665 5.33333H11.1278H11.0668ZM10.9186 9.93479L10.6839 10.5632H11.4036H13.1856L11.9348 7.2136L10.9186 9.93479ZM9.82727 4.84224C9.85398 4.77481 9.88579 4.71045 9.92216 4.64954H6.71914V2H5.22605V4.64954H0.840851V5.99715H4.61471C3.65067 7.79015 2.05178 9.51463 0.300049 10.4283C0.629233 10.7138 1.11125 11.2391 1.34638 11.5931C2.85123 10.6795 4.20323 9.22912 5.22605 7.57316V12.6667H6.71914V7.51606C7.11956 8.15256 7.56753 8.76169 8.05215 9.32292L8.62001 7.88955C8.10196 7.29052 7.64636 6.64699 7.28345 5.99715H9.36973L9.82727 4.84224Z" fill="white"/>
</svg>
